<svg width="532" height="492" viewBox="0 0 532 492" fill="none" xmlns="http://www.w3.org/2000/svg">
<g id="Group 72">
<path id="Vector 8" d="M63.5675 192.459C86.7963 152.636 125.364 154.947 141.744 161.08C154.258 163.695 157.963 155.816 158.251 151.55C158.251 151.55 164.737 81.7755 250.727 102.051C256.76 72.6906 271.331 49.7206 300.222 44.8218C370.387 32.9245 425.256 94.6039 443.92 126.931C464.066 160.236 498.266 239.168 473.897 288.453C443.436 350.059 401.358 324.831 388.339 321.343C377.924 318.552 374.371 325.739 373.896 329.682C358.354 379.006 331.288 384.545 323.906 386.055C316.525 387.566 286.041 377.654 278.978 384.482C271.916 391.311 262.323 427.113 235.179 437.282C208.036 447.451 148.579 435.008 99.2673 378.19C49.956 321.372 34.5315 242.238 63.5675 192.459Z" fill="#D6FF7C"/>
<path id="Ellipse 9" d="M200.218 219.479L207.842 232.685C214.158 243.625 210.964 257.294 200.708 263.215C190.452 269.137 177.017 265.068 170.701 254.128L163.076 240.922" stroke="black" stroke-width="7.37029"/>
<path id="Ellipse 10" d="M311.643 155.143L319.268 168.349C325.584 179.289 322.39 192.958 312.134 198.879C301.877 204.801 288.443 200.732 282.126 189.792L274.502 176.586" stroke="black" stroke-width="7.37029"/>
<ellipse id="Ellipse 8" cx="275.481" cy="264.058" rx="33.3568" ry="23.8263" transform="rotate(-30 275.481 264.058)" fill="black"/>
</g>
</svg>
